<svg xmlns="http://www.w3.org/2000/svg" viewBox="0 0 1200 800" width="1200" height="800">
  <defs>
    <linearGradient id="steelB" x1="0" y1="0" x2="0" y2="1">
      <stop offset="0" stop-color="#5a6678"/>
      <stop offset="0.5" stop-color="#2c313b"/>
      <stop offset="1" stop-color="#444c5c"/>
    </linearGradient>
    <linearGradient id="topB" x1="0" y1="0" x2="1" y2="0">
      <stop offset="0" stop-color="#6f8198"/>
      <stop offset="0.5" stop-color="#9fb1c8"/>
      <stop offset="1" stop-color="#6f8198"/>
    </linearGradient>
  </defs>
  <rect width="1200" height="800" fill="#0C0C0E"/>
  <g stroke="#ffffff" stroke-opacity="0.04">
    <path d="M0 100H1200M0 200H1200M0 300H1200M0 400H1200M0 500H1200M0 600H1200M0 700H1200"/>
    <path d="M100 0V800M300 0V800M500 0V800M700 0V800M900 0V800M1100 0V800"/>
  </g>
  <!-- flat leveled steel ribbon -->
  <rect x="120" y="438" width="970" height="124" fill="url(#steelB)" stroke="#1b1d22" stroke-width="2"/>
  <rect x="120" y="438" width="970" height="6" fill="url(#topB)"/>
  <!-- flatness baseline -->
  <g stroke="#4C6B96" stroke-width="2.5" fill="none">
    <path d="M120 420 H 1090" stroke-dasharray="6 7"/>
    <path d="M120 412 V 428 M1090 412 V 1090 428"/>
  </g>
  <circle cx="605" cy="420" r="6" fill="#4C6B96"/>
  <text x="372" y="394" fill="#6E94C4" font-family="'Montserrat',sans-serif" font-size="26" font-weight="600">planitud uniforme</text>
  <text x="372" y="424" fill="#8a8d96" font-family="'JetBrains Mono',monospace" font-size="19">tolerancia controlada</text>
  <!-- label -->
  <text x="100" y="715" fill="#6E94C4" font-family="'JetBrains Mono',monospace" font-size="22" letter-spacing="3">02</text>
  <text x="148" y="715" fill="#F4F5F7" font-family="'Bebas Neue','Montserrat',sans-serif" font-size="46" letter-spacing="1">L&#193;MINA NIVELADA</text>
</svg>
